/* XPM */
static char *collectable1702316428[] = {
/* columns rows colors chars-per-pixel */
"32 32 149 2 ",
"   c #C8D45D",
".  c #C8D35D",
"X  c #A0AB54",
"o  c #AAB656",
"O  c #C5D05C",
"+  c #BECA5A",
"@  c #889550",
"#  c #485543",
"$  c #222F3A",
"%  c #162438",
"&  c #889450",
"*  c #BECA5B",
"=  c #C5D15D",
"-  c #C8D45E",
";  c #C6D25D",
":  c #BAC55A",
">  c #A5B054",
",  c #748A56",
"<  c #41665A",
"1  c #23515C",
"2  c #1A4A5E",
"3  c #A5B055",
"4  c #BAC659",
"5  c #C6D25C",
"6  c #C7D35E",
"7  c #C1CD5E",
"8  c #6D7849",
"9  c #487666",
"0  c #348C8F",
"q  c #299BA8",
"w  c #25A0B0",
"e  c #249FB0",
"r  c #279BA8",
"t  c #318B8F",
"y  c #477666",
"u  c #6C7949",
"i  c #9FAB53",
"p  c #C0CC5B",
"a  c #C7D35D",
"s  c #879251",
"d  c #6C875C",
"f  c #447A6E",
"g  c #459496",
"h  c #53B9C0",
"j  c #4EC9D7",
"k  c #38C5DE",
"l  c #23BCDE",
"z  c #1CB3D7",
"x  c #20A3C0",
"c  c #2A8996",
"v  c #427A6E",
"b  c #6C885B",
"n  c #87934F",
"m  c #485342",
"M  c #3D6D66",
"N  c #31989E",
"B  c #54BFC6",
"V  c #76D6DC",
"C  c #6ED5E7",
"Z  c #44C3EA",
"A  c #1CB1EA",
"S  c #0FABE7",
"D  c #14ABDC",
"F  c #20A9C6",
"G  c #2F979E",
"H  c #3E6E66",
"J  c #485341",
"K  c #232E39",
"L  c #25616D",
"P  c #2AAEBB",
"I  c #4FD3E0",
"U  c #6DD6E8",
"Y  c #62C8E9",
"T  c #39B3EA",
"R  c #13A2EA",
"E  c #07A0E9",
"W  c #0FADE8",
"Q  c #1EBDE0",
"!  c #28ACBB",
"~  c #29353A",
"^  c #172337",
"/  c #1D5E6F",
"(  c #27B5C4",
")  c #39D0E8",
"_  c #41C4EB",
"`  c #36B2E9",
"'  c #1EA3E9",
"]  c #099AE9",
"[  c #049CE9",
"{  c #0DAEEB",
"}  c #1DC4E8",
"|  c #26B4C4",
" . c #1D5D6F",
".. c #27323A",
"X. c #A1AC54",
"o. c #162236",
"O. c #26B5C5",
"+. c #24C8E9",
"@. c #1BB3EC",
"#. c #11A1E9",
"$. c #0899E9",
"%. c #0297E9",
"&. c #039CE9",
"*. c #0DAEEC",
"=. c #1DC5E9",
"-. c #26B4C5",
";. c #ADB957",
":. c #25626D",
">. c #28ADBB",
",. c #1DBEE0",
"<. c #0FAEE8",
"1. c #06A0E9",
"2. c #039CEA",
"3. c #3D6E65",
"4. c #2D969D",
"5. c #1EA9C6",
"6. c #14ADDD",
"7. c #0DADEC",
"8. c #2D959D",
"9. c #3D6D65",
"0. c #808C4D",
"q. c #64835B",
"w. c #3B7771",
"e. c #258A9D",
"r. c #1DA8C8",
"t. c #1BBAE1",
"y. c #1AC0E8",
"u. c #BDC85A",
"i. c #B0BC58",
"p. c #8FA055",
"a. c #5D7553",
"s. c #3C7974",
"d. c #2B94A0",
"f. c #24A6BB",
"g. c #22ACC2",
"h. c #B5C158",
"j. c #99A552",
"k. c #6B865A",
"l. c #3E6D65",
"z. c #25606C",
"x. c #1D5C6E",
"c. c #6B8659",
"v. c #BFCB5B",
"b. c #899550",
"n. c #495442",
"m. c #222D39",
"M. c #C5D15C",
"N. c #BCC75B",
"B. c #A7B256",
/* pixels */
"                                                                ",
"                                                                ",
"                                                                ",
"                                                                ",
"                                                                ",
"                                                                ",
"                                                                ",
"                                                                ",
"                  .       X X X X X o                           ",
"                  . O + @ # $ % % $ # & * =                     ",
"                - ; : > , < 1 2 2 1 < , 3 4 5                   ",
"                6 7 X 8 9 0 q w e r t y u i p                   ",
"                a s d f g h j k l z x c v b n                   ",
"                X m M N B V C Z A S D F G H J                   ",
"                X K L P I U Y T R E W Q ! L ~ X                 ",
"                X ^ / ( ) _ ` ' ] [ { } |  ...X.                ",
"                X o./ O.+.@.#.$.%.&.*.=.-. .o.X                 ",
"                ;.K :.>.,.<.1.2.2.1.<.,.>.L K X                 ",
"                  J 3.4.5.6.W 7.7.W 6.5.8.9.J X                 ",
"                  0.q.w.e.r.t.y.y.t.r.e.w.q.0.u.                ",
"                  i.p.a.s.d.f.g.g.f.d.s.a.p.i.                  ",
"                  5 h.j.k.l.z.x.x.z.l.c.j.h.5                   ",
"                  . 5 v.b.n.m.o.o.m.n.b.v.5 .                   ",
"                      M.N.X X X X.B.X.                          ",
"                                                                ",
"                                                                ",
"                                                                ",
"                                                                ",
"                                                                ",
"                                                                ",
"                                                                ",
"                                                                "
};
