/* XPM */
static char *exit1702316428[] = {
/* columns rows colors chars-per-pixel */
"32 32 112 2 ",
"   c #C8D45D",
".  c #C9D560",
"X  c #CBD666",
"o  c #9DA75A",
"O  c #42473C",
"+  c #14182E",
"@  c #41473A",
"#  c #9BA551",
"$  c #BDC85A",
"%  c #A6B154",
"&  c #9BA553",
"*  c #9DA758",
"=  c #7B834F",
"-  c #363B38",
";  c #1C1B31",
":  c #2B2236",
">  c #332538",
",  c #363B37",
"<  c #798248",
"1  c #636A43",
"2  c #41473B",
"3  c #202432",
"4  c #593645",
"5  c #70404D",
"6  c #1F2431",
"7  c #888B4D",
"8  c #625743",
"9  c #4F3E3F",
"0  c #664746",
"q  c #945B56",
"w  c #AB655D",
"e  c #A37856",
"r  c #C48960",
"t  c #CC8C62",
"y  c #DB9267",
"u  c #E3966A",
"i  c #4B393E",
"p  c #B87C5D",
"a  c #EE9D6C",
"s  c #42313C",
"d  c #9F6258",
"f  c #CD7B65",
"g  c #3E2D3B",
"h  c #935655",
"j  c #BA6861",
"k  c #B46560",
"l  c #B1635F",
"z  c #935555",
"x  c #3E2C3B",
"c  c #A35A5C",
"v  c #9A545A",
"b  c #8F4D57",
"n  c #9B545A",
"m  c #B2635F",
"M  c #564B41",
"N  c #7E524E",
"B  c #975756",
"V  c #9E5B58",
"C  c #A25C59",
"Z  c #554B41",
"A  c #9CA554",
"S  c #84874D",
"D  c #4A323E",
"F  c #613C45",
"G  c #6D4148",
"H  c #84874C",
"J  c #A7B156",
"K  c #636B43",
"L  c #42483B",
"P  c #363C38",
"I  c #272034",
"U  c #4E313F",
"Y  c #613A45",
"T  c #C8D45E",
"R  c #BDC85B",
"E  c #9BA552",
"W  c #9CA652",
"Q  c #7A8249",
"!  c #2F2437",
"~  c #653B48",
"^  c #804751",
"/  c #A7B255",
"(  c #838B53",
")  c #515754",
"_  c #4E4054",
"`  c #794956",
"'  c #515653",
"]  c #828B52",
"[  c #646B44",
"{  c #707484",
"}  c #83768C",
"|  c #8B5B68",
" . c #8B5B69",
".. c #3C3F55",
"X. c #8B8EA4",
"o. c #AEA4B7",
"O. c #A7838F",
"+. c #A3727B",
"@. c #8A8EA4",
"#. c #3B3F55",
"$. c #C9D45F",
"%. c #42473B",
"&. c #43465A",
"*. c #A1A3B2",
"=. c #CFCCD8",
"-. c #CCC1CA",
";. c #CBBBC4",
":. c #D0D2DE",
">. c #B2B5CB",
",. c #383C53",
"<. c #7F839D",
"1. c #A3A7C2",
/* pixels */
"                  . X o O + + + + + + @ #                       ",
"  $ % # # # # # # & * = - ; : > > : ; , < # # # # # # # # % $   ",
"  % 1 @ @ @ @ @ @ 2 2 - 3 : 4 5 5 4 : 6 , @ @ @ @ @ @ @ @ 1 %   ",
"# 7 8 9 9 9 9 9 9 9 9 9 9 0 q w w q 0 9 9 9 9 9 9 9 9 9 9 8 7 # ",
"@ 8 e r r r r r r r r r r t y u u y t r r r r r r r r r r e 8 @ ",
"+ i p a a a a a a a a a a a a a a a a a a a a a a a a a a p i + ",
"+ s d f f f f f f f f f f f f f f f f f f f f f f f f f f d s + ",
"+ g h j k l l l l l l l l l l l l l l l l l l l l l l k j z x + ",
"+ g h k c v v v v v v v v v v v v v v v v v v v v v v c k z x + ",
"+ g h l v b b b b b b b b b b b b b b b b b b b b b b n m z x + ",
"+ g h l v b b b b b b b b b b b b b b b b b b b b b b n m z x + ",
"+ g h l v b b b b b b b b b b b b b b b b b b b b b b n m z x + ",
"+ g h l v b b b b b b b b b b b b b b b b b b b b b b n m z x + ",
"+ g h l v b b b b b b b b b b b b b b b b b b b b b b n m z x + ",
"+ g h l v b b b b b b b b b b b b b b b b b b b b b b n m z x + ",
"+ g h l v b b b b b b b b b b b b b b b b b b b b b b n m z x + ",
"+ g h l v b b b b b b b b b b b b b b b b b b b b b b n m z x + ",
"+ g h l v b b b b b b b b b b b b b b b b b b b b b b n m z x + ",
"+ g h l v b b b b b b b b b b b b b b b b b b b b b b n m z x + ",
"+ g h k c n n n n n n n n n n n n n n n n n n n n n n c k z x + ",
"+ g h j k m m m m m m m m m m m m m m m m m m m m m m k j z x + ",
"2 M N z z z z z z z z z z B V C C V B z z z z z z z z z z N Z @ ",
"A S M x x x x x x x x x x D F G G F D x x x x x x x x x x Z H # ",
". J K @ @ @ @ @ @ @ L P 6 I U Y Y U I 6 , @ @ @ @ @ @ @ @ 1 %   ",
"T R % # # # # # # E W Q P ! ~ ^ ^ ~ ! , < # # # # # # # # % $   ",
"                  R / ( ) _ ` b b ` _ ' ] % $                   ",
"                  % [ ) { } | b b  .} { ' 1 %                   ",
"                T E @ ..X.o.O.+.+.O.o.@.#.@ #                   ",
"              T $.& %.&.*.=.-.;.;.-.=.*.&.@ #                   ",
"              T $.& %.&.*.:.:.:.:.:.:.*.&.@ #                   ",
"                T E @ ..X.>.>.>.>.>.>.@.#.@ #                   ",
"                  # @ ,.<.1.1.1.1.1.1.<.,.@ #                   "
};
