/* XPM */
static char *player1702316428[] = {
/* columns rows colors chars-per-pixel */
"32 32 223 2 ",
"   c #C8D45D",
".  c #9BA551",
"X  c #41473A",
"o  c #14182E",
"O  c #BDC85A",
"+  c #A6B154",
"@  c #7C844B",
"#  c #3D4340",
"$  c #1E223A",
"%  c #A7B155",
"&  c #BEC95E",
"*  c #C9D561",
"=  c #C9D560",
"-  c #C8D45E",
";  c #636A43",
":  c #353A4C",
">  c #313552",
",  c #646C46",
"<  c #AAB460",
"1  c #CCD76A",
"2  c #CAD663",
"3  c #252943",
"4  c #333855",
"5  c #3A3F5E",
"6  c #3F4343",
"7  c #808757",
"8  c #BFCA61",
"9  c #383D5B",
"0  c #353A4D",
"q  c #646B47",
"w  c #A7B258",
"e  c #C9D45F",
"r  c #303552",
"t  c #1D223A",
"y  c #42483B",
"u  c #9CA652",
"i  c #9BA552",
"p  c #464762",
"a  c #5F586B",
"s  c #A98984",
"d  c #9CA654",
"f  c #41473C",
"g  c #6B606F",
"h  c #CEA190",
"j  c #DAA994",
"k  c #90787B",
"l  c #CBD666",
"z  c #9EA75B",
"x  c #42483D",
"c  c #F3BA9D",
"v  c #BEC95D",
"b  c #A9B35D",
"n  c #8B8E59",
"m  c #635C50",
"M  c #4A4250",
"N  c #3F4059",
"B  c #5E5669",
"V  c #A6857F",
"C  c #CA9C8A",
"Z  c #D7A690",
"A  c #F2B99B",
"S  c #FFC2A1",
"D  c #625B4C",
"F  c #888C50",
"G  c #A7B255",
"H  c #646B46",
"J  c #A48473",
"K  c #A2817B",
"L  c #5D5568",
"P  c #43435D",
"I  c #564C5C",
"U  c #60515C",
"Y  c #886D6D",
"T  c #A38372",
"R  c #4F434B",
"E  c #C49884",
"W  c #44435E",
"Q  c #574C5D",
"!  c #514655",
"~  c #343146",
"^  c #5C4D58",
"/  c #C99B89",
"(  c #C49784",
")  c #4F424B",
"_  c #9E7C74",
"`  c #463D49",
"'  c #53464F",
"]  c #C69986",
"[  c #AA847B",
"{  c #755D68",
"}  c #846870",
"|  c #D6A491",
" . c #4B3D47",
".. c #B88778",
"X. c #EEAC91",
"o. c #D6A490",
"O. c #84686F",
"+. c #A38373",
"@. c #625C4F",
"#. c #636B45",
"$. c #A6B155",
"%. c #624A50",
"&. c #89585B",
"*. c #B57871",
"=. c #E6A991",
"-. c #42323F",
";. c #9F6661",
":. c #CD8072",
">. c #8B8E57",
",. c #A9B35C",
"<. c #342738",
"1. c #73464B",
"2. c #AA6B64",
"3. c #D89682",
"4. c #C79280",
"5. c #775D5C",
"6. c #6E5255",
"7. c #AE7168",
"8. c #CE8072",
"9. c #42483C",
"0. c #9EA759",
"q. c #CBD665",
"w. c #1F1D31",
"e. c #624149",
"r. c #CB8676",
"t. c #CF9D88",
"y. c #E4A78E",
"u. c #EFAC91",
"i. c #41473B",
"p. c #9CA554",
"a. c #4D444F",
"s. c #494858",
"d. c #5E4F5C",
"f. c #8B585A",
"g. c #B26E67",
"h. c #D39381",
"j. c #E6A78F",
"k. c #ECAA91",
"l. c #BDC85B",
"z. c #BE9D92",
"x. c #B2A8AC",
"c. c #9C939D",
"v. c #7D5C64",
"b. c #7C4B50",
"n. c #9B6061",
"m. c #B4706C",
"M. c #C57B70",
"N. c #636B43",
"B. c #A7B157",
"V. c #888C51",
"C. c #DEAC9B",
"Z. c #BDADAF",
"A. c #968F9B",
"S. c #69525E",
"D. c #613A45",
"F. c #804751",
"G. c #9D5C62",
"H. c #B87978",
"J. c #C68884",
"K. c #804651",
"L. c #613945",
"P. c #625B4D",
"I. c #898D52",
"U. c #AC726C",
"Y. c #685762",
"T. c #4A4455",
"R. c #4F3946",
"E. c #A16A73",
"W. c #C5A5AB",
"Q. c #D7C3C7",
"!. c #F3B195",
"~. c #DA917E",
"^. c #272034",
"/. c #4E313F",
"(. c #6D3E4A",
"). c #844853",
"_. c #A3727B",
"`. c #CBBBC4",
"'. c #DFE0E8",
"]. c #844852",
"[. c #F3B295",
"{. c #FBBD9D",
"}. c #2F2437",
"|. c #653B48",
" X c #8B4B56",
".X c #98786F",
"XX c #403844",
"oX c #2B2236",
"OX c #593645",
"+X c #744552",
"@X c #7B4F5D",
"#X c #8D7381",
"$X c #ACB2BE",
"%X c #BBD1DC",
"&X c #232335",
"*X c #1C1B31",
"=X c #3D3449",
"-X c #525269",
";X c #62768C",
":X c #6D9FB1",
">X c #73B3C4",
",X c #363B37",
"<X c #1F2431",
"1X c #493C4B",
"2X c #5E5A6C",
"3X c #5E6F83",
"4X c #4A7B8F",
"5X c #408195",
"6X c #5E596C",
"7X c #798248",
"8X c #965B5A",
"9X c #9D6565",
"0X c #815E64",
"qX c #424757",
"wX c #233B50",
"eX c #554B41",
"rX c #7E524E",
"tX c #935555",
"yX c #564B41",
"uX c #84874C",
"iX c #3E2C3B",
"pX c #84874D",
"aX c #9BA553",
/* pixels */
"                  . X o o o o o o o o o o X .                   ",
"              O + @ # $ $ $ $ $ $ $ $ $ $ # @ % & * = -         ",
"    - -       + ; # : > > > > > > > > > > : # , < 1 2 = -       ",
"    - -   O + @ # 3 4 5 5 5 5 5 5 5 5 5 5 4 3 6 7 < 8 = -   - - ",
"    - -   + ; # : 4 9 5 5 5 5 5 5 5 5 5 5 9 4 0 6 q w = - - e = ",
"    - -   . X $ > 5 5 5 5 5 5 5 5 5 5 5 5 5 5 r t y u - - - e = ",
"          . X $ > 5 5 5 5 5 5 5 5 5 5 5 5 5 5 r t X i -     - - ",
"          . X $ > p a a p 5 5 5 5 5 5 p a a p r t X .       - - ",
"          . X $ > a s s a 5 5 5 5 5 5 a s s a r t X .     - - e ",
"      - = d f $ > g h j k g g g g g g k j h g r t X .     - - e ",
"      = l z x $ > g h c j h h h h h h j c h g r t X .       - - ",
"      v b n m M N B V C C Z A S S A Z C C V B N M D F + O       ",
"      G H m J K L P I U U Y Z S S Z Y U U I P L K T D ; +       ",
"      . X R E h g W Q ! ~ ^ / S S / ^ ~ ! Q W g h ( ) X .       ",
"      . X R E h g B V _ ` ' ] S S ] ' ` _ V B g h ( ) X .       ",
"      + ; D T [ { } | ( )  ...X.X... .R E o.O.{ [ +.@.#.$.      ",
"      O + F D %.&.*.=.( ) -.;.:.:.;.-.R E =.*.&.%.@.>.,.v       ",
"          . X <.1.2.3.4.5.6.7.8.8.7.6.5.4.3.2.1.<.9.0.q.=       ",
"          . X w.<.e.2.r.4.t.y.u.u.y.t.4.r.2.e.<.w.i.p.= -       ",
"      O + F D a.s.d.f.g.h.j.k.X.X.k.j.h.g.f.d.s.a.D F + l.-     ",
"    - $.; D T z.x.c.v.b.n.m.M.:.:.M.m.n.b.v.c.x.z.T D N.B.= -   ",
"  O $.V.D 5.4.C.Z.A.S.D.F.G.H.J.J.H.G.K.L.S.A.Z.C.4.5.P.I.B.l.  ",
"  + ; D T 4.r.U.Y.T.R.D.F.E.W.Q.Q.W.E.K.L.R.T.Y.U.r.4.T P.N.+   ",
"  . X R E !.~.;.-.^./.(.)._.`.'.'.`._.].(./.^.-.;.~.[.( ) X .   ",
"  . X R E {.[... .}.|.). X_.`.'.'.`._. X).|.}. ...[.{.( ) X .   ",
"  + ; D T ( ( .XXXoXOX+X@X#X$X%X%X$X#X@X+XOXoXXX.X( ( T D ; +   ",
"  O + F D ) ) XX&X*XoX=X-X;X:X>X>X:X;X-X=XoX*X&XXX) ) D F + O   ",
"      + ; X X ,X<Xw.<.1X2X3X4X5X5X4X3X6X1X<.w.<X,XX X ; +       ",
"      O + . . 7X,X<.1.8X9X0XqXwXwXqX0X9X8X1.<.,X7X. . + O       ",
"              + ; eXrXtXtXrXeXX y yXrXtXtXrXeX; +               ",
"              O + uXeXiXiXeXuXi u pXyXiXiXeXuX+ O               ",
"                  . X o o X . - e aXi.o o X .                   "
};
