/* XPM */
static char *playeru1702483761[] = {
/* columns rows colors chars-per-pixel */
"32 32 139 2 ",
"   c #C8D45D",
".  c #9BA551",
"X  c #41473A",
"o  c #14182E",
"O  c #BDC85A",
"+  c #A6B154",
"@  c #7C844B",
"#  c #3D4340",
"$  c #1E223A",
"%  c #636A43",
"&  c #353A4C",
"*  c #313552",
"=  c #252943",
"-  c #333855",
";  c #3A3F5E",
":  c #383D5B",
">  c #303552",
",  c #1D223A",
"<  c #888C50",
"1  c #625B4C",
"2  c #4A4250",
"3  c #3F4059",
"4  c #A38372",
"5  c #A2817B",
"6  c #5D5568",
"7  c #4F434B",
"8  c #C49884",
"9  c #CEA190",
"0  c #6B606F",
"q  c #C49784",
"w  c #4F424B",
"e  c #AA847B",
"r  c #755D68",
"t  c #53475F",
"y  c #42425E",
"u  c #624A50",
"i  c #89585B",
"p  c #845760",
"a  c #342738",
"s  c #73464B",
"d  c #855357",
"f  c #694D5D",
"g  c #5B4A5F",
"h  c #694D5C",
"j  c #1F1D31",
"k  c #563945",
"l  c #855358",
"z  c #9C5F61",
"x  c #563944",
"c  c #4D444F",
"v  c #494858",
"b  c #5E4F5C",
"n  c #8B585A",
"m  c #9E5B58",
"M  c #975756",
"N  c #7A4D54",
"B  c #493D53",
"V  c #BE9D92",
"C  c #B2A8AC",
"Z  c #9C939D",
"A  c #7D5C64",
"S  c #613C45",
"D  c #4A323E",
"F  c #362A3B",
"G  c #26243A",
"H  c #775D5C",
"J  c #C79280",
"K  c #DEAC9B",
"L  c #BDADAF",
"P  c #968F9B",
"I  c #69525E",
"U  c #4A303D",
"Y  c #3B293A",
"T  c #2F2437",
"R  c #272034",
"E  c #241F32",
"W  c #CB8676",
"Q  c #AC726C",
"!  c #685762",
"~  c #4A4455",
"^  c #4F3946",
"/  c #5A3642",
"(  c #693D49",
")  c #653B48",
"_  c #4E313F",
"`  c #432C3B",
"'  c #F3B195",
"]  c #DA917E",
"[  c #9F6661",
"{  c #42323F",
"}  c #5D3844",
"|  c #74424C",
" . c #78434E",
".. c #693D48",
"X. c #613A45",
"o. c #5D3843",
"O. c #422C3B",
"+. c #231F32",
"@. c #F3B295",
"#. c #FBBD9D",
"$. c #B88778",
"%. c #4B3D47",
"&. c #563540",
"*. c #804751",
"=. c #98786F",
"-. c #403844",
";. c #201D31",
":. c #372738",
">. c #463140",
",. c #4D3B4B",
"<. c #5C4958",
"1. c #735A68",
"2. c #7F636F",
"3. c #232335",
"4. c #181A2F",
"5. c #2E2E43",
"6. c #434C63",
"7. c #52687F",
"8. c #5B8195",
"9. c #5F8EA0",
"0. c #363B37",
"q. c #1F2431",
"w. c #493C4B",
"e. c #5E5A6C",
"r. c #5E6F83",
"t. c #4A7B8F",
"y. c #408195",
"u. c #5E596C",
"i. c #798248",
"p. c #965B5A",
"a. c #9D6565",
"s. c #815E64",
"d. c #424757",
"f. c #233B50",
"g. c #554B41",
"h. c #7E524E",
"j. c #935555",
"k. c #84874C",
"l. c #3E2C3B",
/* pixels */
"                  . X o o o o o o o o o o X .                   ",
"              O + @ # $ $ $ $ $ $ $ $ $ $ # @ + O               ",
"              + % # & * * * * * * * * * * & # % +               ",
"          O + @ # = - ; ; ; ; ; ; ; ; ; ; - = # @ + O           ",
"          + % # & - : ; ; ; ; ; ; ; ; ; ; : - & # % +           ",
"          . X $ * ; ; ; ; ; ; ; ; ; ; ; ; ; ; > , X .           ",
"          . X $ * ; ; ; ; ; ; ; ; ; ; ; ; ; ; > , X .           ",
"          . X $ * ; ; ; ; ; ; ; ; ; ; ; ; ; ; > , X .           ",
"          . X $ * ; ; ; ; ; ; ; ; ; ; ; ; ; ; > , X .           ",
"          . X $ * ; ; ; ; ; ; ; ; ; ; ; ; ; ; > , X .           ",
"          . X $ * ; ; ; ; ; ; ; ; ; ; ; ; ; ; > , X .           ",
"      O + < 1 2 3 ; ; ; ; ; ; ; ; ; ; ; ; ; ; 3 2 1 < + O       ",
"      + % 1 4 5 6 ; ; ; ; ; ; ; ; ; ; ; ; ; ; 6 5 4 1 % +       ",
"      . X 7 8 9 0 ; ; ; ; ; ; ; ; ; ; ; ; ; ; 0 9 q w X .       ",
"      . X 7 8 9 0 ; ; ; ; ; ; ; ; ; ; ; ; ; ; 0 9 q w X .       ",
"      + % 1 4 e r t y ; ; ; ; ; ; ; ; ; ; y t r e 4 1 % +       ",
"      O + < 1 u i p t ; ; ; ; ; ; ; ; ; ; t p i u 1 < + O       ",
"          . X a s d f g g t y ; ; y t g g h d s a X .           ",
"          . X j a k l z z p t ; ; t p z z d x a j X .           ",
"      O + < 1 c v b n m M N B > > B N M m n b v c 1 < + O       ",
"      + % 1 4 V C Z A S D F G , , G F D S A Z C V 4 1 % +       ",
"  O + < 1 H J K L P I U Y T R E E R T Y U I P L K J H 1 < + O   ",
"  + % 1 4 J W Q ! ~ ^ / ( ) _ ` ` _ ) ( / ^ ~ ! Q W J 4 1 % +   ",
"  . X 7 8 ' ] [ { E ` } |  ...X.X... .| o.O.+.{ [ ] @.q w X .   ",
"  . X 7 8 #.@.$.%.E ` &.o... .*.*. ...o.&.O.+.%.$.@.#.q w X .   ",
"  + % 1 4 q q =.-.;.:.>.,.<.1.2.2.1.<.,.>.:.;.-.=.q q 4 1 % +   ",
"  O + < 1 w w -.3.4.;.5.6.7.8.9.9.8.7.6.5.;.4.3.-.w w 1 < + O   ",
"      + % X X 0.q.j a w.e.r.t.y.y.t.r.u.w.a j q.0.X X % +       ",
"      O + . . i.0.a s p.a.s.d.f.f.d.s.a.p.s a 0.i.. . + O       ",
"              + % g.h.j.j.h.g.X X g.h.j.j.h.g.% +               ",
"              O + k.g.l.l.g.k.. . k.g.l.l.g.k.+ O               ",
"                  . X o o X .     . X o o X .                   "
};
