/* XPM */
static char *playerl1702483761[] = {
/* columns rows colors chars-per-pixel */
"32 32 168 2 ",
"   c #C8D45D",
".  c #9BA551",
"X  c #41473A",
"o  c #14182E",
"O  c #BDC85A",
"+  c #A6B154",
"@  c #7C844B",
"#  c #3D4340",
"$  c #1E223A",
"%  c #636A43",
"&  c #353A4C",
"*  c #313552",
"=  c #252943",
"-  c #333855",
";  c #3A3F5E",
":  c #383D5B",
">  c #303552",
",  c #1D223A",
"<  c #464762",
"1  c #5F586B",
"2  c #A98984",
"3  c #2A2A3E",
"4  c #554E5F",
"5  c #6B606F",
"6  c #90787B",
"7  c #DAA994",
"8  c #CEA190",
"9  c #423A47",
"0  c #9F7F78",
"q  c #F3BA9D",
"w  c #4F434B",
"e  c #C49884",
"r  c #F2B99B",
"t  c #D7A690",
"y  c #CA9C8A",
"u  c #A6857F",
"i  c #5E5669",
"p  c #886D6D",
"a  c #60515C",
"s  c #564C5C",
"d  c #43435D",
"f  c #C99B89",
"g  c #5C4D58",
"h  c #343146",
"j  c #514655",
"k  c #574C5D",
"l  c #44435E",
"z  c #C69986",
"x  c #53464F",
"c  c #463D49",
"v  c #9E7C74",
"b  c #4B3D47",
"n  c #B88778",
"m  c #675A6B",
"M  c #C19184",
"N  c #F3B195",
"B  c #FBBD9D",
"V  c #42323F",
"C  c #9F6661",
"Z  c #5F4F63",
"A  c #A9706D",
"S  c #DA917E",
"D  c #F3B295",
"F  c #554B41",
"G  c #7E524E",
"H  c #825152",
"J  c #60474D",
"K  c #7B6260",
"L  c #D3A28B",
"P  c #846870",
"I  c #B57871",
"U  c #CE8879",
"Y  c #CE9989",
"T  c #A68681",
"R  c #585062",
"E  c #84874C",
"W  c #A37D72",
"Q  c #F0B79A",
"!  c #D6A491",
"~  c #E6A991",
"^  c #8C7377",
"/  c #313147",
"(  c #625B4C",
")  c #A38372",
"_  c #C49784",
"`  c #CF9D87",
"'  c #E4A78E",
"]  c #E8A98F",
"[  c #DAA28B",
"{  c #AB847B",
"}  c #594F60",
"|  c #292E49",
" . c #1B1F37",
".. c #888C50",
"X. c #4F424B",
"o. c #6E5254",
"O. c #AE7168",
"+. c #B9766B",
"@. c #91615E",
"#. c #654950",
"$. c #352F41",
"%. c #161A31",
"&. c #868E54",
"*. c #5C615A",
"=. c #424153",
"-. c #382E41",
";. c #4F3341",
":. c #864F51",
">. c #8A5052",
",. c #5A3842",
"<. c #443443",
"1. c #464354",
"2. c #3A3E51",
"3. c #21243A",
"4. c #91949A",
"5. c #9D929E",
"6. c #7F5B68",
"7. c #6F404C",
"8. c #6E4049",
"9. c #362738",
"0. c #8A8A98",
"q. c #868897",
"w. c #3A3D51",
"e. c #474A5D",
"r. c #ACAEBA",
"t. c #CBBBC4",
"y. c #A3727B",
"u. c #7C4550",
"i. c #563442",
"p. c #412C3B",
"a. c #3F2C3B",
"s. c #685862",
"d. c #BDAEAF",
"f. c #B2A8AC",
"g. c #494858",
"h. c #74414E",
"j. c #3E2A3B",
"k. c #77484C",
"l. c #AC736C",
"z. c #DEAD9B",
"x. c #BE9D92",
"c. c #4D444F",
"v. c #3E465A",
"b. c #91A3B1",
"n. c #ACB5C1",
"m. c #8E7E8A",
"M. c #64505F",
"N. c #2F2B3E",
"B. c #2C3F54",
"V. c #5B8C9F",
"C. c #6EAABB",
"Z. c #6497A9",
"A. c #4C7183",
"S. c #27364A",
"D. c #415651",
"F. c #40727F",
"G. c #4B8699",
"H. c #60909F",
"J. c #5F7B89",
"K. c #494755",
"L. c #7D8A51",
"P. c #415551",
"I. c #424A5A",
"U. c #82696E",
"Y. c #9E706F",
"T. c #965E5E",
"R. c #935555",
"E. c #3E2C3B",
/* pixels */
"                  . X o o o o o o o o o o X .                   ",
"              O + @ # $ $ $ $ $ $ $ $ $ $ # @ + O               ",
"              + % # & * * * * * * * * * * & # % +               ",
"          O + @ # = - ; ; ; ; ; ; ; ; ; ; - = # @ + O           ",
"          + % # & - : ; ; ; ; ; ; ; ; ; ; : - & # % +           ",
"          . X $ * ; ; ; ; ; ; ; ; ; ; ; ; ; ; > , X .           ",
"          . X $ * ; ; ; ; ; ; ; ; ; ; ; ; ; ; > , X .           ",
"          . X $ * ; ; < 1 1 < ; ; ; ; ; ; ; ; > , X .           ",
"          . X $ * ; ; 1 2 2 1 ; ; ; ; ; ; ; ; > , X .           ",
"          . X 3 4 5 5 6 7 8 5 ; ; ; ; ; ; ; ; > , X .           ",
"          . X 9 0 8 8 7 q 8 5 ; ; ; ; ; ; ; ; > , X .           ",
"          . X w e r t y y u i ; ; ; ; ; ; ; ; > , X .           ",
"          . X w e t p a a s d ; ; ; ; ; ; ; ; > , X .           ",
"          . X w e f g h j k l < 1 5 5 1 < ; ; > , X .           ",
"          . X w e z x c v u i 1 2 8 8 2 1 ; ; > , X .           ",
"          . X b n n b w e 8 5 m M N B 8 5 : - & # % +           ",
"          . X V C C V w e 8 5 Z A S D 8 5 - = # @ + O           ",
"          + % F G H J K L 7 6 P I U Y T R & # % +               ",
"          O + E F J W L Q q 7 ! ~ Y ^ R / # @ + O               ",
"              + % ( ) _ _ ` ' ] [ { } |  .X .                   ",
"              O + ..( X.X.o.O.+.@.#.$. .%.X .                   ",
"              O + &.*.=.-.;.:.>.,.<.1.2.3.X .                   ",
"              + % *.4.5.6.7.8.,.9.1.0.q.w.X .                   ",
"              . X e.r.t.y.u.i.p.a.s.d.f.g.X .                   ",
"              . X e.r.t.y.h.j.a.k.l.z.x.c.X .                   ",
"              . X v.b.n.m.M.N.V C S D _ X.X .                   ",
"              . X B.V.C.Z.A.S.b n D B _ X.X .                   ",
"              + % D.F.G.H.J.K.J W _ _ ) ( % +                   ",
"              O + L.P.I.U.Y.T.H J X.X.( ..+ O                   ",
"                  + % F G R.R.G F X X % +                       ",
"                  O + E F E.E.F E . . + O                       ",
"                      . X o o X .                               "
};
