/* XPM */
static char *playerr1702483761[] = {
/* columns rows colors chars-per-pixel */
"32 32 168 2 ",
"   c #C8D45D",
".  c #9BA551",
"X  c #41473A",
"o  c #14182E",
"O  c #BDC85A",
"+  c #A6B154",
"@  c #7C844B",
"#  c #3D4340",
"$  c #1E223A",
"%  c #636A43",
"&  c #353A4C",
"*  c #313552",
"=  c #252943",
"-  c #333855",
";  c #3A3F5E",
":  c #383D5B",
">  c #303552",
",  c #1D223A",
"<  c #464762",
"1  c #5F586B",
"2  c #A98984",
"3  c #6B606F",
"4  c #CEA190",
"5  c #DAA994",
"6  c #90787B",
"7  c #554E5F",
"8  c #2A2A3E",
"9  c #F3BA9D",
"0  c #9F7F78",
"q  c #423A47",
"w  c #5E5669",
"e  c #A6857F",
"r  c #CA9C8A",
"t  c #D7A690",
"y  c #F2B99B",
"u  c #C49784",
"i  c #4F424B",
"p  c #43435D",
"a  c #564C5C",
"s  c #60515C",
"d  c #886D6D",
"f  c #44435E",
"g  c #574C5D",
"h  c #514655",
"j  c #343146",
"k  c #5C4D58",
"l  c #C99B89",
"z  c #9E7C74",
"x  c #463D49",
"c  c #53464F",
"v  c #C69986",
"b  c #FBBC9D",
"n  c #F3B195",
"m  c #C19184",
"M  c #675A6B",
"N  c #4B3D47",
"B  c #B88778",
"V  c #DA907E",
"C  c #A9706D",
"Z  c #5F4F63",
"A  c #42323F",
"S  c #9F6661",
"D  c #585062",
"F  c #A68681",
"G  c #CE9989",
"H  c #CE8879",
"J  c #B57871",
"K  c #846870",
"L  c #D3A28B",
"P  c #7B6260",
"I  c #60474D",
"U  c #825152",
"Y  c #7E524E",
"T  c #554B41",
"R  c #313147",
"E  c #8C7377",
"W  c #E6A991",
"Q  c #D6A491",
"!  c #F0B79A",
"~  c #A37D72",
"^  c #84874C",
"/  c #1B1F37",
"(  c #292E49",
")  c #595060",
"_  c #AB847B",
"`  c #DAA28B",
"'  c #E8A98F",
"]  c #E4A78E",
"[  c #CF9D87",
"{  c #A38372",
"}  c #625B4C",
"|  c #161A31",
" . c #352F41",
".. c #654950",
"X. c #91615E",
"o. c #B9766B",
"O. c #AE7168",
"+. c #6E5254",
"@. c #888C50",
"#. c #21253A",
"$. c #3A3E51",
"%. c #464354",
"&. c #443443",
"*. c #5A3842",
"=. c #8A5052",
"-. c #864E51",
";. c #4F3340",
":. c #382E41",
">. c #424153",
",. c #5C615A",
"<. c #868E54",
"1. c #868997",
"2. c #8A8A98",
"3. c #362738",
"4. c #6E4049",
"5. c #6F404C",
"6. c #7F5B68",
"7. c #9D929E",
"8. c #91949A",
"9. c #494858",
"0. c #B2A8AC",
"q. c #BDADAF",
"w. c #685762",
"e. c #3F2C3B",
"r. c #412C3B",
"t. c #563442",
"y. c #7C4550",
"u. c #A3727B",
"i. c #CBBBC4",
"p. c #ACAEB9",
"a. c #474A5C",
"s. c #4D444F",
"d. c #BE9D92",
"f. c #DEAC9B",
"g. c #AC726C",
"h. c #77484C",
"j. c #3E2A3B",
"k. c #74414E",
"l. c #4F434B",
"z. c #C49884",
"x. c #DA917E",
"c. c #2F2B3E",
"v. c #64505F",
"b. c #8E7E8A",
"n. c #ACB5C1",
"m. c #91A3B0",
"M. c #3E4659",
"N. c #FBBD9D",
"B. c #F3B295",
"V. c #27364A",
"C. c #4C7183",
"Z. c #6497A9",
"A. c #6EAABB",
"S. c #5B8C9E",
"D. c #2C3F53",
"F. c #494755",
"G. c #5F7B89",
"H. c #60909F",
"J. c #4B8699",
"K. c #40727F",
"L. c #415651",
"P. c #965E5E",
"I. c #9E706F",
"U. c #82696E",
"Y. c #424A5A",
"T. c #7D8B51",
"R. c #935555",
"E. c #3E2C3B",
/* pixels */
"                  . X o o o o o o o o o o X .                   ",
"              O + @ # $ $ $ $ $ $ $ $ $ $ # @ + O               ",
"              + % # & * * * * * * * * * * & # % +               ",
"          O + @ # = - ; ; ; ; ; ; ; ; ; ; - = # @ + O           ",
"          + % # & - : ; ; ; ; ; ; ; ; ; ; : - & # % +           ",
"          . X $ * ; ; ; ; ; ; ; ; ; ; ; ; ; ; > , X .           ",
"          . X $ * ; ; ; ; ; ; ; ; ; ; ; ; ; ; > , X .           ",
"          . X $ * ; ; ; ; ; ; ; ; < 1 1 < ; ; > , X .           ",
"          . X $ * ; ; ; ; ; ; ; ; 1 2 2 1 ; ; > , X .           ",
"          . X $ * ; ; ; ; ; ; ; ; 3 4 5 6 3 3 7 8 X .           ",
"          . X $ * ; ; ; ; ; ; ; ; 3 4 9 5 4 4 0 q X .           ",
"          . X $ * ; ; ; ; ; ; ; ; w e r r t y u i X .           ",
"          . X $ * ; ; ; ; ; ; ; ; p a s s d t u i X .           ",
"          . X $ * ; ; < 1 3 3 1 < f g h j k l u i X .           ",
"          . X $ * ; ; 1 2 4 4 2 1 w e z x c v u i X .           ",
"          + % # & - : 3 4 b n m M 3 4 u i N B B N X .           ",
"          O + @ # = - 3 4 n V C Z 3 4 u i A S S A X .           ",
"              + % # & D F G H J K 6 5 L P I U Y T % +           ",
"              O + @ # R D E G W Q 5 9 ! L ~ I T ^ + O           ",
"                  . X / ( ) _ ` ' ] [ u u { } % +               ",
"                  . X | /  ...X.o.O.+.i i } @.+ O               ",
"                  . X #.$.%.&.*.=.-.;.:.>.,.<.+ O               ",
"                  . X $.1.2.%.3.*.4.5.6.7.8.,.% +               ",
"                  . X 9.0.q.w.e.r.t.y.u.i.p.a.X .               ",
"                  . X s.d.f.g.h.e.j.k.u.i.p.a.X .               ",
"                  . X l.z.n x.S A c.v.b.n.m.M.X .               ",
"                  . X l.z.N.B.B N V.C.Z.A.S.D.X .               ",
"                  + % } { u u ~ I F.G.H.J.K.L.% +               ",
"                  O + @.} i i I U P.I.U.Y.L.T.+ O               ",
"                      + % X X T Y R.R.Y T % +                   ",
"                      O + . . ^ T E.E.T ^ + O                   ",
"                              . X o o X .                       "
};
