/* XPM */
static char *skeleton1702486354[] = {
/* columns rows colors chars-per-pixel */
"32 32 102 2 ",
"   c #C8D45D",
".  c #9BA551",
"X  c #41473A",
"o  c #14182E",
"O  c #BDC85A",
"+  c #A6B154",
"@  c #828B52",
"#  c #515653",
"$  c #3C3F55",
"%  c #43465A",
"&  c #474A5D",
"*  c #636A43",
"=  c #707484",
"-  c #8B8EA4",
";  c #A1A3B2",
":  c #ACAEBA",
">  c #565A71",
",  c #9397AD",
"<  c #BDC0D3",
"1  c #D4D5E1",
"2  c #DFE0E8",
"3  c #BCBECE",
"4  c #DBDCE6",
"5  c #383C53",
"6  c #7F839D",
"7  c #B2B5CC",
"8  c #D0D2DF",
"9  c #D0D2DE",
"0  c #B2B5CB",
"q  c #343850",
"w  c #747995",
"e  c #A3A7C1",
"r  c #C1C4D5",
"t  c #2D314B",
"y  c #5E6486",
"u  c #868BAD",
"i  c #797FA2",
"p  c #7D829F",
"a  c #4F536C",
"s  c #2F334A",
"d  c #646881",
"f  c #1D2137",
"g  c #1E192F",
"h  c #311C32",
"j  c #58445A",
"k  c #948FA6",
"l  c #6A253B",
"z  c #995367",
"x  c #BEA8B7",
"c  c #6D718A",
"v  c #4A4E66",
"b  c #BB7587",
"n  c #BFAABB",
"m  c #C1C4D4",
"M  c #6D718B",
"N  c #9995B1",
"B  c #4A4E65",
"V  c #798248",
"C  c #363B37",
"Z  c #B1B3C7",
"A  c #AEB0BE",
"S  c #A3A5B6",
"D  c #8F94B0",
"F  c #8A8EA4",
"G  c #3B3F55",
"H  c #1F2431",
"J  c #696C7D",
"K  c #65687A",
"L  c #868E54",
"P  c #5C615A",
"I  c #606374",
"U  c #9395A2",
"Y  c #868897",
"T  c #3A3D51",
"R  c #3A3E51",
"E  c #ACAEB9",
"W  c #91949A",
"Q  c #21243A",
"!  c #474A5C",
"~  c #C7C9D5",
"^  c #B5B7C3",
"/  c #8B8E9D",
"(  c #979AB0",
")  c #626578",
"_  c #505576",
"`  c #B6B9CE",
"'  c #BDC0D2",
"]  c #989DB9",
"[  c #9093AB",
"{  c #B1B4C6",
"}  c #AFB2C8",
"|  c #898FAF",
" . c #777DA3",
".. c #898FB0",
"X. c #4B5069",
"o. c #727796",
"O. c #9196B5",
"+. c #9499B8",
"@. c #484C67",
"#. c #676D8F",
"$. c #8589A4",
"%. c #8F94B1",
/* pixels */
"                  . X o o o o o o o o o o X .                   ",
"              O + @ # $ % & & & & & & % $ # @ + O               ",
"              + * # = - ; : : : : : : ; - = # * +               ",
"          O + @ # > , < 1 2 2 2 2 2 2 1 < , > # @ + O           ",
"          + * # = , 3 1 4 2 2 2 2 2 2 4 1 3 , = # * +           ",
"          . X 5 6 7 8 2 2 2 2 2 2 2 2 2 2 9 0 6 5 X .           ",
"          . X 5 6 7 8 2 2 2 2 2 2 2 2 2 2 9 0 6 5 X .           ",
"          . X q w e r 1 4 2 2 2 2 2 2 4 1 r e w q X .           ",
"          . X t y u e < 1 2 2 2 2 2 2 1 < e u y t X .           ",
"          . X t y i p , 3 1 4 2 2 4 1 3 , p i y t X .           ",
"          . X q w p a > , < 1 2 2 1 < , > a p w q X .           ",
"          . X 5 6 6 5 s d , 3 9 9 3 , d s 5 6 6 5 X .           ",
"          . X 5 6 6 5 f s > , 0 0 , > s f 5 6 6 5 X .           ",
"          . X 5 6 6 5 g h j k 7 7 k j h g 5 6 6 5 X .           ",
"          . X 5 6 6 5 h l z x 8 8 x z l h 5 6 6 5 X .           ",
"          + * # = c v j z b n m m n b z j v c = # * +           ",
"          O + @ # v M k x n N u u N n x k c B # @ + O           ",
"          O + V C $ - Z A S D u u D S A Z F G C V + O           ",
"          + * C H % ; A J K S m m S K J A ; % H C * +           ",
"      O + L P & & I U Y T R Y E E Y T R Y U I & & P L + O       ",
"      + * P W : : U I T Q Q T ! ! T Q Q T I U : : W P * +       ",
"  O + L P J A ~ ^ / B t q $ % & & % $ q t B / ^ ~ A J P L + O   ",
"  + * P W A Z ( ) B _ y w - ; : : ; - w y _ B ) ( Z A W P * +   ",
"  . X & : 1 < F G t y u e ` ' m m ' ` e u y t $ - < 1 E ! X .   ",
"  . X & : 4 1 ; % q w e r ' ] u u ] ' r e w q % ; 1 4 E ! X .   ",
"  + * P W E E Y T s d [ { } |  . ...} { [ d s R Y E E W P * +   ",
"  O + L P ! ! T Q f s X.o.| O.+.+.O.| o.X.s f Q T ! ! P L + O   ",
"      + * X X C H f s @.#.i p 6 6 p i #.@.s f H C X X * +       ",
"      O + . . V C s d $.%.p a 5 5 a p %.$.d s C V . . + O       ",
"              + * # = 6 6 = # X X # = 6 6 = # * +               ",
"              O + @ # 5 5 # @ . . @ # 5 5 # @ + O               ",
"                  . X o o X .     . X o o X .                   "
};
