/* XPM */
static char *wall1702316428[] = {
/* columns rows colors chars-per-pixel */
"32 32 195 2 ",
"   c #C8D45D",
".  c #C8D45E",
"X  c #C7D35E",
"o  c #B1BB56",
"O  c #5C5E3B",
"+  c #1E1A27",
"@  c #181425",
"#  c #C7D35D",
"$  c #C6D25D",
"%  c #B0BA55",
"&  c #1E1B28",
"*  c #191526",
"=  c #191527",
"-  c #C6D25C",
";  c #C1CD5C",
":  c #ACB655",
">  c #8F964D",
",  c #575A46",
"<  c #313043",
"1  c #333246",
"2  c #38374A",
"3  c #39374B",
"4  c #ACB654",
"5  c #C1CD5B",
"6  c #C5D05D",
"7  c #B2BC57",
"8  c #797D45",
"9  c #4E4E3F",
"0  c #50525F",
"q  c #575A79",
"w  c #696C88",
"e  c #777A92",
"r  c #7A7C94",
"t  c #787C44",
"y  c #C1CC5C",
"u  c #AEB856",
"i  c #90974F",
"p  c #555745",
"a  c #32314A",
"s  c #575A7A",
"d  c #787EA3",
"f  c #8F94B5",
"g  c #9FA4C0",
"h  c #A3A7C2",
"j  c #C5D15D",
"k  c #B0BA56",
"l  c #797E46",
"z  c #515343",
"x  c #50535F",
"c  c #575B7D",
"v  c #777B9C",
"b  c #9095B5",
"n  c #9B9FBD",
"m  c #A1A6C1",
"M  c #7A7E46",
"N  c #AFB956",
"B  c #C9D45F",
"V  c #919850",
"C  c #545544",
"Z  c #575A7B",
"A  c #787EA5",
"S  c #535443",
"D  c #B1BB57",
"F  c #C2CE5D",
"G  c #C9D560",
"H  c #ADB755",
"J  c #787D45",
"K  c #545645",
"L  c #515460",
"P  c #9196B6",
"I  c #9BA0BC",
"U  c #A2A6C1",
"Y  c #545644",
"T  c #AFB955",
"R  c #8F974E",
"E  c #4F5040",
"W  c #575B7C",
"Q  c #9196B5",
"!  c #8F974F",
"~  c #5A5C3A",
"^  c #565945",
"/  c #50525E",
"(  c #5B5D3B",
")  c #1D1A27",
"_  c #2E2D40",
"`  c #515474",
"'  c #71779E",
"]  c #8D92B2",
"[  c #2A2840",
"{  c #515477",
"}  c #737AA1",
"|  c #8F94B4",
" . c #29273E",
".. c #4D5073",
"X. c #6D749C",
"o. c #888DAF",
"O. c #9CA0BD",
"+. c #A0A4C0",
"@. c #25243A",
"#. c #414568",
"$. c #5B638C",
"%. c #72799E",
"&. c #878DAF",
"*. c #979CBA",
"=. c #222137",
"-. c #373C5E",
";. c #4B537D",
":. c #5C648D",
">. c #70779E",
",. c #898EB0",
"<. c #9CA1BD",
"1. c #212037",
"2. c #343A5B",
"3. c #444C76",
"4. c #4D557F",
"5. c #73799F",
"6. c #888EAF",
"7. c #979BBA",
"8. c #34395B",
"9. c #414A74",
"0. c #5D648D",
"q. c #898EAF",
"w. c #A2A7C2",
"e. c #404973",
"r. c #434C76",
"t. c #4D5680",
"y. c #5B628C",
"u. c #979BB9",
"i. c #A1A5C1",
"p. c #4A527C",
"a. c #9A9EBC",
"s. c #9DA1BE",
"d. c #434B75",
"f. c #5C638C",
"g. c #858AAD",
"h. c #5E658E",
"j. c #6D739C",
"k. c #70769E",
"l. c #454E78",
"z. c #575F89",
"x. c #656C96",
"c. c #686F99",
"v. c #1F1B27",
"b. c #1F1B28",
"n. c #262538",
"m. c #353A5A",
"M. c #3F4871",
"N. c #3F4872",
"B. c #252437",
"V. c #5E603F",
"C. c #3F414E",
"Z. c #33395A",
"A. c #3B4269",
"S. c #3E424D",
"D. c #535541",
"F. c #5D5F3B",
"G. c #B5BF5F",
"H. c #B4BE5E",
"J. c #939A55",
"K. c #4B4D3E",
"L. c #24243C",
"P. c #353A5C",
"I. c #4A4C3B",
"U. c #90984D",
"Y. c #C9D563",
"T. c #B0B95A",
"R. c #7A7F46",
"E. c #51533F",
"W. c #50533F",
"Q. c #797E44",
"!. c #AEB855",
"~. c #C2CD5C",
"^. c #B3BD56",
"/. c #91984D",
"(. c #4E503E",
"). c #91984E",
"_. c #B3BD57",
"`. c #C5D15C",
"'. c #7A7F45",
"]. c #4E513E",
"[. c #454D77",
"{. c #B0B956",
"}. c #C2CD5B",
"|. c #50523F",
" X c #444D76",
".X c #787D44",
"XX c #4A4C3C",
"oX c #383D5E",
"OX c #44486B",
"+X c #4E5174",
"@X c #505376",
"#X c #90974D",
"$X c #525541",
"%X c #26253C",
"&X c #29283F",
/* pixels */
"      . . . . X o O + @ @ @ @ @ @ @ @ @ @ @ + O o #   . . . . . ",
"      . . . . $ % O & * * = = = = = = = * * & O % -   . . . . . ",
"      . . X ; : > , < 1 2 3 3 3 3 3 3 3 2 1 < , > 4 5 X . . . . ",
"      . X 6 7 8 9 0 q w e r r r r r r r e w q 0 9 t 7 6 X . . . ",
"      . y u i p a s d f g h h h h h h h g f d s a p i u y . . . ",
"    X j k l z x c v b n m h h h h h h h m n b v c x z M N j X B ",
"    ; 7 V C a Z A b m h h h h h h h h h h h m b A Z a S i D F G ",
"# # H J K L Z v P I U h h h h h h h h h h h U I P v Z x Y J u X ",
"T T R E a W A Q h h h h h h h h h h h h h h h h h Q A W a E ! N ",
"~ ~ ^ / Z v b I h h h h h h h h h h h h h h h h h I b v Z / ^ ( ",
") + _ ` ' ] m U h h h h h h h h h h h h h h h h h U m ] ' ` _ + ",
"@ @ [ { } | h h h h h h h h h h h h h h h h h h h h h | } { [ @ ",
"@ @  ...X.o.O.+.h h h h h h h h h h h h h h h h h +.O.o.X... .@ ",
"@ @ @.#.$.%.&.*.h h h h h h h h h h h h h h h h h *.&.%.$.#.@.@ ",
"@ @ =.-.;.:.>.,.<.+.h h h h h h h h h h h h h +.<.,.>.:.;.-.=.@ ",
"@ @ 1.2.3.4.$.5.6.7.U h h h h h h h h h h h U 7.6.5.$.4.3.2.1.@ ",
"@ @ 1.8.9.3.;.0.>.q.n +.w.h h h h h h h w.+.n q.>.0.;.3.9.8.1.@ ",
"@ @ 1.8.e.e.r.t.y.5.o.u.i.h h h h h h h i.u.o.5.y.t.r.e.e.8.1.@ ",
"@ @ 1.8.e.e.9.r.p.0.' 6.a.s.s.s.s.s.s.s.a.6.' 0.p.r.9.e.e.8.1.@ ",
"@ @ 1.8.e.e.e.e.d.t.f.5.g.o.o.o.o.o.o.o.g.5.f.t.d.e.e.e.e.8.1.@ ",
"@ @ 1.8.e.e.e.e.9.r.;.h.j.k.k.k.k.k.k.k.j.h.;.r.9.e.e.e.e.8.1.@ ",
"@ @ 1.8.e.e.e.e.e.e.l.z.x.c.c.c.c.c.c.c.x.z.l.e.e.e.e.e.e.8.1.@ ",
"v.b.n.m.M.N.e.e.e.e.l.z.x.c.c.c.c.c.c.c.x.z.l.e.e.e.e.N.M.m.B.+ ",
"V.V.Y C.Z.A.e.e.e.e.l.z.x.c.c.c.c.c.c.c.x.z.l.e.e.e.e.A.Z.S.D.F.",
"G.H.J.K.L.P.e.e.e.e.l.z.x.c.c.c.c.c.c.c.x.z.l.e.e.e.e.P.L.I.U.o ",
"Y.Y.T.R.E.S.8.A.e.e.l.z.x.c.c.c.c.c.c.c.x.z.l.e.e.A.8.S.W.Q.!.# ",
". . ~.^./.(.L.8.e.e.l.z.x.c.c.c.c.c.c.c.x.z.l.e.e.8.L.(.)._.5   ",
"      `.% '.].S.P.A.[.z.x.c.c.c.c.c.c.c.x.z.[.A.P.S.].'.{.j     ",
"        }.% /.|.L.Z. Xz.x.c.c.c.c.c.c.c.x.z. XZ.L.|./.% ~..     ",
"          `.^..XXXS.oXOX+X@X@X@X@X@X@X@X+XOXoXS.XX.X^.j . . . . ",
"            5 !.#X$Xn.%X&X[ [ [ [ [ [ [ &X%Xn.$X#X!.5 . G B . . ",
"              # o O + @ @ @ @ @ @ @ @ @ @ @ + O o #   . G G B . "
};
